<svg width="24" height="24" viewBox="0 0 24 24" fill="#4B4B4B" xmlns="http://www.w3.org/2000/svg">
<path d="M14.3749 20.9996V17.4996C14.375 16.9309 14.397 16.6846 14.3583 16.4527C14.3331 16.3012 14.2809 16.1652 14.0576 15.9419C13.8875 15.7717 13.83 15.5184 13.9101 15.2916C13.9903 15.0647 14.1943 14.9041 14.4335 14.8785C15.7918 14.7329 17.011 14.4016 17.8906 13.6402C18.7433 12.9018 19.3748 11.671 19.3749 9.50054L19.3701 9.30718C19.3222 8.34494 18.926 7.43028 18.2519 6.73589C18.0833 6.56227 18.03 6.30615 18.1152 6.07964C18.4023 5.31622 18.4174 4.48172 18.1669 3.71343C18.0885 3.72193 17.9939 3.73615 17.8828 3.7603C17.3992 3.86543 16.5954 4.15433 15.4462 4.92046C15.298 5.01907 15.1146 5.04931 14.9423 5.00444C13.013 4.502 10.9869 4.502 9.05756 5.00444C8.88527 5.04931 8.70186 5.01907 8.55365 4.92046C7.40445 4.15433 6.6007 3.86543 6.11713 3.7603C6.00553 3.73605 5.91056 3.72191 5.83197 3.71343C5.58157 4.48164 5.59767 5.31632 5.88471 6.07964C5.95928 6.27789 5.92765 6.49826 5.80561 6.66655L5.74799 6.73589C5.02883 7.47665 4.62602 8.46809 4.62494 9.50054C4.62505 11.671 5.25655 12.9018 6.10932 13.6402C6.9889 14.4016 8.20812 14.7329 9.56635 14.8785C9.8056 14.9041 10.0096 15.0647 10.0898 15.2916C10.1699 15.5184 10.1124 15.7717 9.94233 15.9419C9.72565 16.1586 9.63909 16.348 9.6015 16.5435C9.55915 16.7641 9.5709 17.0291 9.62006 17.4224L9.62494 17.4996V20.9996C9.62494 21.3447 9.34512 21.6246 8.99994 21.6246C8.65476 21.6246 8.37494 21.3447 8.37494 20.9996V19.813C7.58453 19.9751 6.90842 19.9592 6.31928 19.7945C5.53223 19.5743 4.97804 19.1106 4.55365 18.6226C4.16335 18.1738 3.79948 17.5889 3.54779 17.2486C3.37099 17.0095 3.22263 16.8472 3.08686 16.7417L2.72065 16.5591C2.43113 16.4144 2.29942 16.0723 2.41791 15.771C2.53643 15.4698 2.86616 15.3086 3.1767 15.4C3.3793 15.4596 3.55876 15.5525 3.72162 15.6617L8.37494 17.9888V17.5328C8.32705 17.1393 8.29447 16.7207 8.37397 16.3072C8.39554 16.195 8.42426 16.0852 8.46186 15.9781C7.32807 15.7672 6.20048 15.372 5.29096 14.5845C4.09389 13.5479 3.37494 11.9286 3.37494 9.49956L3.38178 9.24565C3.43817 8.10881 3.86467 7.02295 4.59369 6.1519C4.28035 5.06002 4.36115 3.88804 4.83002 2.84429L4.86225 2.78179C4.9445 2.64279 5.07773 2.53963 5.23529 2.49663L5.40033 3.10015C5.24167 2.51837 5.23592 2.4975 5.23627 2.49663H5.23822L5.24018 2.49565C5.24172 2.49525 5.24339 2.49511 5.24506 2.49468C5.24859 2.49377 5.2527 2.49273 5.25678 2.49175C5.26503 2.48976 5.27459 2.48711 5.2851 2.48491C5.30601 2.48054 5.33147 2.47658 5.36127 2.47222C5.42139 2.46344 5.49977 2.45579 5.59565 2.45366C5.78773 2.44941 6.04942 2.46714 6.38275 2.5396C7.007 2.67532 7.87605 3.00299 9.01166 3.72905C10.9763 3.26214 13.0226 3.26228 14.9872 3.72905C16.1232 3.00268 16.9928 2.67535 17.6171 2.5396C17.9505 2.46714 18.2122 2.44941 18.4042 2.45366C18.5001 2.45579 18.5785 2.46344 18.6386 2.47222C18.6684 2.47658 18.6939 2.48054 18.7148 2.48491C18.7253 2.48711 18.7349 2.48976 18.7431 2.49175C18.7472 2.49273 18.7513 2.49377 18.7548 2.49468C18.7565 2.49511 18.7582 2.49525 18.7597 2.49565L18.7617 2.49663H18.7636C18.764 2.49748 18.7584 2.51725 18.6093 3.06401L18.7646 2.49663C18.9448 2.54581 19.0933 2.67388 19.1699 2.84429C19.6388 3.88813 19.7187 5.05994 19.4052 6.1519C20.1886 7.08763 20.6237 8.27112 20.6249 9.49956L20.6162 9.94585C20.5328 12.1291 19.8312 13.6127 18.7089 14.5845C17.7965 15.3745 16.6647 15.7697 15.5273 15.98C15.5537 16.0662 15.5763 16.1551 15.5917 16.2476C15.653 16.6154 15.625 17.0688 15.6249 17.4996V20.9996C15.6249 21.3447 15.3451 21.6246 14.9999 21.6246C14.6548 21.6246 14.3749 21.3447 14.3749 20.9996ZM5.7685 18.0826C6.02383 18.3165 6.30869 18.4932 6.65619 18.5904C6.72662 18.6101 6.80151 18.6257 6.8808 18.6392L5.7685 18.0826Z"/>
</svg>