<svg width="20" height="20" viewBox="0 0 20 20" fill="#1473E6" xmlns="http://www.w3.org/2000/svg">
<path d="M12.0582 6.22428C12.2717 6.01116 12.601 5.98449 12.8434 6.1442L12.942 6.22428L16.275 9.55826C16.5191 9.80234 16.5191 10.198 16.275 10.4421L12.942 13.7751L12.8434 13.8551C12.6008 14.0151 12.2717 13.9886 12.0582 13.7751C11.8141 13.531 11.8141 13.1353 12.0582 12.8913L14.3248 10.6247H4.16663C3.82145 10.6247 3.54163 10.3448 3.54163 9.99967C3.5418 9.65464 3.82156 9.37467 4.16663 9.37467H14.3239L12.0582 7.10904L11.9781 7.01041C11.818 6.76782 11.8447 6.43785 12.0582 6.22428Z"/>
</svg>
